<svg xmlns="http://www.w3.org/2000/svg" xmlns:xlink="http://www.w3.org/1999/xlink" width="327" height="42" viewBox="0 0 327 42">
    <defs>
        <path id="a" d="M0 42h327V0H0z"/>
    </defs>
    <g fill="none" fill-rule="evenodd">
        <path fill="#FFF" d="M71.253 28.636v-28h17.854c4.676.142 7.51.142 8.501.283.85.142 1.7.424 2.41.99.708.566 1.275 1.131 1.7 1.98.425 1.131.708 2.97.708 5.374 0 1.838-.142 3.394-.425 4.525-.283 1.131-.85 1.98-1.559 2.545-.708.707-1.558 1.132-2.409 1.273-.85.283-2.125.424-3.825.424H74.937v10.606h-3.684zm3.684-13.858h14.028c3.4 0 5.526 0 6.376-.142.85-.141 1.559-.424 2.126-.848.425-.424.708-.849.85-1.556.142-.707.283-1.555.283-2.97 0-1.414 0-2.403-.283-3.11-.142-.566-.425-1.132-.85-1.415a3.485 3.485 0 0 0-2.126-.707c-.85-.141-2.975-.141-6.518-.283H74.795v11.03h.142zM104.97 28.636v-28h17.3c4.744 0 7.674.142 8.93.283 2.232.283 3.906 1.414 4.743 3.111.558 1.132.837 2.829.837 4.95 0 1.555-.14 2.828-.279 3.677-.14.848-.558 1.555-.976 1.98-.698.848-1.814 1.414-3.349 1.696 1.256.142 2.093.707 2.79 1.414.559.566.838 1.273.977 1.98.14.849.28 2.404.28 4.667v3.96h-3.628v-2.689c0-2.261 0-3.817-.14-4.806-.279-1.839-1.255-2.829-2.93-3.112-.697-.14-1.255-.14-1.813-.14h-18.974v10.747h-3.767v.282zm3.628-14h13.533c3.627 0 5.86 0 6.976-.141a10.708 10.708 0 0 0 2.511-.707c.977-.707 1.395-2.121 1.395-4.667 0-2.121-.418-3.535-1.255-4.1-.558-.425-1.396-.708-2.651-.85-1.256-.14-3.488-.14-6.836-.14h-13.533v10.605h-.14zM139.961 28.636v-28h27.356V3.89h-23.69v8.626h22.704v3.253h-22.703v9.614h23.69v3.254z"/>
        <path fill="#FFF" d="M167.317.636h4.209l13.75 24.606h1.261L200.007.636h4.209l-15.432 28h-5.754z"/>
        <mask id="b" fill="#fff">
            <use xlink:href="#a"/>
        </mask>
        <path fill="#FFF" d="M205.488 28.636h3.817v-28h-3.817zM213.123.636h14.904l14.623 20.93h.844l-.141-20.93h8.577v28h-14.764L222.542 7.707h-.983l.14 20.93h-8.576zM255.747.636h31.032v6.505h-22.672v4.101h21.54v6.081h-21.54v4.525h22.813v6.788h-31.173zM307.984 0c6.013 0 10.066.14 12.305.421 3.215.421 5.173 1.965 6.012 4.632.56 1.825.699 4.914.699 9.265 0 4.352-.281 7.44-.7 9.263-.698 2.669-2.657 4.212-6.011 4.634-2.239.28-6.292.421-12.305.421s-10.208-.141-12.444-.42c-3.216-.423-5.175-1.966-6.012-4.635-.56-1.823-.7-4.911-.7-9.403 0-4.211.28-7.3.7-9.125.699-2.667 2.655-4.21 6.012-4.632C297.917.141 302.112 0 307.984 0m.14 7.16c-4.476 0-7.13.14-8.11.28-.978.28-1.677.842-2.097 1.825-.28.982-.42 2.807-.42 5.615 0 1.684.14 2.948.279 3.65.28 1.403 1.398 2.245 3.076 2.386 1.26.14 3.637.28 7.272.28 3.356 0 5.731 0 6.851-.14 1.119-.14 1.956-.421 2.517-.842.558-.421.838-.983.979-1.685.14-.701.278-1.965.278-3.65 0-1.965 0-3.509-.138-4.35-.14-.984-.42-1.685-.7-2.107-.419-.561-1.118-.982-2.237-1.123-1.258 0-3.636-.14-7.55-.14M71.916 37.5v2.59h-.663v-5.726h2.121c.132 0 .397.137.53.272.132.137.265.274.397.547.133.272.133.544.133.817 0 .274 0 .547-.133.818-.132.273-.265.41-.397.546-.133.136-.265.136-.53.274h-1.458V37.5zm0-.682h.397c.53 0 .928-.136 1.193-.271.133-.138.265-.41.265-.682 0-.41-.132-.682-.265-.82-.265-.135-.53-.272-1.193-.272h-.397v2.045zM82.068 40.09v-5.726h2.181c.137 0 .273.135.41.272.136.137.272.272.408.544.137.275.137.41.137.682 0 .41-.137.82-.41 1.091-.272.273-.681.41-1.09.41l2.181 2.728h-.818l-2.045-2.727h-.136v2.727h-.818zm.682-5.045v1.908h.545c.545 0 .954-.135 1.09-.271.137-.138.273-.41.273-.682 0-.41-.136-.682-.272-.82-.137-.135-.546-.272-1.091-.272h-.545v.137zM96.203 39.877c.276 0 .553 0 .968-.141.276-.14.553-.283.83-.566.276-.281.414-.564.553-.848.138-.283.138-.566.138-.99 0-.283 0-.707-.138-.99-.139-.281-.277-.564-.554-.848-.276-.283-.553-.423-.83-.566-.276-.142-.553-.142-.967-.142-.277 0-.692 0-.969.142-.276.143-.553.283-.83.566-.276.284-.414.567-.553.848-.138.283-.138.566-.138.99 0 .283 0 .707.138.99.139.284.277.567.554.848.276.283.553.426.83.566.276 0 .553.141.968.141m3.042-2.402c0 .424-.138.847-.276 1.271-.139.424-.415.707-.692.99a4.123 4.123 0 0 1-.968.707c-.415.141-.83.284-1.245.284-.415 0-.83-.143-1.245-.284-.414-.14-.691-.423-.968-.707-.276-.283-.553-.566-.691-.99-.138-.424-.277-.707-.277-1.131 0-.423.139-.847.277-1.273.138-.424.415-.707.691-.988.277-.283.692-.568.968-.708.415-.142.83-.282 1.245-.282.415 0 .83.14 1.245.282.415.14.691.425.968.708.277.28.553.564.692.988.138.283.276.566.276 1.133M109.705 37.027h2.264v.135c0 .931-.266 1.597-.8 2.13-.532.534-1.197.799-1.996.799-.267 0-.533 0-.8-.133-.266 0-.399-.132-.665-.267a4.053 4.053 0 0 1-1.065-1.065c-.267-.4-.4-.933-.4-1.464 0-.534.133-.934.267-1.2.133-.4.399-.666.665-.932.267-.267.533-.4.932-.532.4-.134.666-.134 1.066-.134.532 0 1.065.134 1.464.266.4.133.666.534.932.932l-.532.4c-.267-.4-.4-.533-.8-.798a2.488 2.488 0 0 0-1.064-.268 2.21 2.21 0 0 0-1.598.666c-.4.4-.666 1.066-.666 1.732 0 .666.266 1.2.666 1.598.4.4.932.666 1.598.666.532 0 1.065-.133 1.464-.533.4-.4.533-.799.666-1.332h-1.598v-.666zM120.24 40.09v-5.726h2.261c.142 0 .283.135.424.272.142.137.283.272.425.544.14.275.14.41.14.682 0 .41-.14.82-.423 1.091-.283.273-.707.41-1.131.41h-.142l2.262 2.728h-.848l-2.12-2.727h-.142v2.727h-.707zm.565-5.045v1.908h.565c.566 0 .99-.135 1.131-.271.142-.138.283-.41.283-.682 0-.41-.141-.682-.283-.82-.141-.135-.565-.272-1.13-.272h-.566v.137zM132.327 35.32l-.938 2.168h1.741l-.803-2.169zm0-1.593l2.545 6.364h-.67l-.67-1.88h-2.41l-.67 1.88h-.67l2.545-6.364zM145.05 40.09l-1.797-4.242-.83 3.961h-.553l1.106-6.082 2.075 4.95 2.074-4.95 1.107 6.082h-.692l-.691-3.96zM157.633 35.32l-.99 2.168h1.838l-.848-2.169zm0-1.593l2.686 6.364h-.707l-.707-1.88h-2.262l-.707 1.88h-.706l2.403-6.364zM169.367 36.556c.424.142.707.425.848.707.142.282.283.565.283.99 0 .567-.141.99-.567 1.274-.281.282-.847.564-1.414.564-.422 0-.846-.142-1.13-.424-.283-.283-.565-.565-.706-.99l.707-.282c.141.425.283.565.423.847.142.142.425.285.706.285.426 0 .707-.143.85-.285.283-.14.283-.422.283-.847 0-.282-.142-.567-.283-.707-.143-.143-.424-.425-.707-.567l-.707-.283a1.45 1.45 0 0 1-.85-.707c-.14-.283-.28-.564-.28-.99 0-.424.14-.707.423-.988.283-.283.707-.426 1.271-.426.426 0 .707.143.991.283.283.143.423.424.566.707l-.566.424c-.14-.281-.284-.424-.424-.564-.141-.143-.282-.143-.567-.143-.28 0-.422.143-.706.283-.14.143-.282.424-.282.567 0 .14 0 .423.142.564.14.143.282.283.565.426l1.131.282zM192.147 39.545h.394c.655 0 1.178 0 1.44-.136a.975.975 0 0 0 .655-.273c.263-.136.393-.409.525-.818.13-.273.13-.682.13-1.09 0-.41 0-.819-.13-1.092-.132-.272-.262-.545-.525-.818a.975.975 0 0 0-.655-.273c-.262 0-.785-.136-1.44-.136h-.394v4.636zm-.655.546v-5.727h1.05c.784 0 1.31 0 1.702.136.262.136.655.273.785.41.262.272.525.545.655.954.132.409.262.818.262 1.363 0 .546-.13.955-.262 1.364-.13.409-.393.682-.785.954l-.787.41c-.26.136-.786.136-1.441.136h-1.179zM203.58 40.09v-5.726h3.18v.681h-2.457v1.637h2.458v.682h-2.458v2.181h2.458v.546zM227.782 37.5v2.59h-.663v-5.726h2.122c.13 0 .396.137.53.272.132.137.263.274.397.547.132.272.132.544.132.817 0 .274 0 .547-.132.818-.134.273-.265.41-.397.546-.134.136-.266.136-.53.274h-1.459V37.5zm0-.682h.397a2.6 2.6 0 0 0 1.192-.271c.134-.138.266-.41.266-.682 0-.41-.132-.682-.266-.82-.263-.135-.529-.272-1.192-.272h-.397v2.045zM237.934 40.09v-5.726h2.264c.14 0 .282.135.422.272.141.137.284.272.424.544.143.275.143.41.143.682 0 .41-.143.82-.426 1.091-.281.273-.707.41-1.13.41h-.14l2.26 2.728h-.847l-2.12-2.727h-.143v2.727h-.707zm.565-5.045v1.908h.567c.564 0 .988-.135 1.131-.271.14-.138.283-.41.283-.682 0-.41-.143-.682-.283-.82-.143-.135-.567-.272-1.13-.272h-.568v.137zM248.749 40.09v-5.726h3.181v.681h-2.458v1.637h2.458v.682h-2.458v2.181h2.458v.546zM261.473 40.727l-2.545-6.363h.848l1.697 4.772 1.696-4.772h.849zM271.016 40.09v-5.726h3.18v.681h-2.35v1.637h2.35v.682h-2.35v2.181h2.35v.546zM281.83 39.81v-6.083l4.383 4.668V33.87h.707v6.22l-4.382-4.666v4.385zM299.644 35.469c-.275-.29-.549-.58-.825-.726a2.464 2.464 0 0 0-1.1-.29c-.276 0-.551 0-.964.144-.275.146-.55.291-.825.582-.274.29-.413.58-.55.869-.138.292-.138.582-.138 1.017 0 .29 0 .58.138.726 0 .29.137.434.276.726l.824.87c.275.146.688.29 1.1.29.413 0 .688-.144.964-.29.275-.145.551-.436.825-.725v1.014c-.274.292-.55.437-.962.437-.276.145-.687.145-.964.145-.275 0-.55 0-.825-.145l-.826-.437c-.412-.288-.687-.725-.962-1.16-.276-.435-.276-1.017-.276-1.45 0-.436.138-.871.276-1.307.139-.437.412-.726.687-1.016.275-.29.688-.58.963-.725.413-.147.688-.29 1.24-.29.273 0 .687 0 .961.143.275.147.688.292.963.437v1.16zM296.755 42v-.435c.277 0 .413.145.55.145h.415c.136 0 .273 0 .41-.145.138 0 .138-.146.138-.29 0-.147 0-.147-.137-.29-.138 0-.275-.146-.411-.146h-.277v-.87h.277v.433h.136c.275 0 .551 0 .688.147.137.145.275.29.275.579 0 .291-.138.437-.275.582-.137.143-.413.143-.688.143h-.413c-.275.147-.55.147-.688.147zM309.045 35.59l-.989 2.046h1.839l-.85-2.045zm0-1.5l2.687 6h-.708l-.707-1.772h-2.26l-.708 1.773h-.707l2.403-6.001zm1.272-1.5c0 .274-.14.41-.282.546-.14.137-.283.272-.565.272H309.187l-.424-.135H308.48c-.142 0-.142 0-.284.135l-.14.137h-.425c0-.272.142-.409.282-.545.143-.136.283-.274.567-.274H308.763l.424.138H309.47c.14 0 .14 0 .282-.138 0 0 .143-.135.143-.271h.422v.136zM322.049 39.877c.276 0 .552 0 .968-.141.275-.14.553-.283.83-.566.276-.281.415-.564.553-.848.138-.283.138-.566.138-.99 0-.283 0-.707-.138-.99-.138-.281-.277-.564-.553-.848-.277-.283-.555-.423-.83-.566-.277-.142-.553-.142-.968-.142-.277 0-.692 0-.968.142-.277.143-.555.283-.83.566-.277.284-.416.567-.553.848-.139.283-.139.566-.139.99 0 .283 0 .707.139.99.137.284.276.567.553.848.275.283.553.426.83.566.276 0 .553.141.968.141m3.042-2.402c0 .424-.138.847-.276 1.271-.14.424-.415.707-.692.99a4.123 4.123 0 0 1-.968.707c-.415.141-.83.284-1.246.284-.413 0-.828-.143-1.243-.284-.415-.14-.692-.423-.968-.707-.277-.283-.555-.566-.692-.99-.138-.424-.276-.707-.276-1.131 0-.423.138-.847.276-1.273.137-.424.415-.707.692-.988.276-.283.691-.568.968-.708.415-.142.83-.282 1.243-.282.416 0 .831.14 1.246.282.415.14.692.425.968.708.277.28.552.564.692.988.276.283.276.566.276 1.133M4.063 0h15.413c2.241 0 4.063 1.801 4.063 4.018v9.145c0 2.217-1.822 4.019-4.063 4.019H4.063C1.821 17.182 0 15.38 0 13.163V4.157C0 1.94 1.821 0 4.063 0M36 0h-6.472c-2.251 0-4.08 1.801-4.08 4.018v9.145c0 2.217 1.829 4.019 4.08 4.019H36c2.25 0 4.08-1.802 4.08-4.019V4.157C40.08 1.94 38.25 0 36 0M46.69 0h8.41c2.243 0 4.065 1.813 4.065 4.043v16.732c0 2.23-1.822 4.043-4.065 4.043h-8.41c-2.243 0-4.065-1.812-4.065-4.043V4.043C42.625 1.952 44.447 0 46.69 0M4.017 19.727h9.143c2.216 0 4.017 1.813 4.017 4.045v12.274c0 2.232-1.8 4.045-4.017 4.045H4.017C1.801 40.09 0 38.278 0 36.046V23.772c0-2.232 1.8-4.045 4.017-4.045M24.406 27.364h30.711c2.234 0 4.048 1.848 4.048 4.121v5.12c0 2.275-1.814 4.122-4.048 4.122h-30.71c-2.234 0-4.049-1.847-4.049-4.122v-5.12c0-2.273 1.815-4.121 4.048-4.121" mask="url(#b)"/>
    </g>
</svg>
