<svg xmlns="http://www.w3.org/2000/svg" xmlns:xlink="http://www.w3.org/1999/xlink" width="411" height="53" viewBox="0 0 411 53">
    <defs>
        <path id="a" d="M0 53h411V0H0z"/>
    </defs>
    <g fill="none" fill-rule="evenodd">
        <path fill="#1A2325" d="M89.556 36.136V.803h22.44c5.878.178 9.44.178 10.686.357 1.069.178 2.137.535 3.028 1.25.89.713 1.603 1.427 2.137 2.497.534 1.428.89 3.748.89 6.782 0 2.32-.178 4.282-.534 5.71-.356 1.428-1.069 2.498-1.959 3.212-.89.892-1.959 1.428-3.028 1.606-1.068.357-2.671.536-4.808.536H94.187v13.383h-4.63zm4.63-17.488h17.632c4.275 0 6.946 0 8.015-.178 1.068-.179 1.959-.536 2.671-1.071.534-.535.89-1.07 1.069-1.963.178-.892.356-1.963.356-3.747 0-1.785 0-3.034-.356-3.926-.179-.714-.535-1.428-1.069-1.785a4.369 4.369 0 0 0-2.671-.892c-1.069-.179-3.74-.179-8.193-.357H94.01v13.92h.178zM131.936 36.136V.803h21.744c5.962 0 9.644.178 11.222.357 2.806.357 4.91 1.784 5.962 3.926.702 1.427 1.052 3.569 1.052 6.246a29.26 29.26 0 0 1-.35 4.64c-.176 1.07-.702 1.962-1.228 2.498-.877 1.07-2.28 1.784-4.208 2.141 1.578.179 2.63.892 3.507 1.785.701.713 1.052 1.606 1.227 2.498.176 1.07.35 3.034.35 5.889v4.996h-4.558v-3.392c0-2.853 0-4.816-.176-6.065-.35-2.32-1.578-3.57-3.682-3.926-.877-.179-1.578-.179-2.28-.179H136.67V35.78h-4.734v.357zm4.559-17.666h17.01c4.558 0 7.364 0 8.767-.179 1.227-.178 2.28-.535 3.156-.892 1.228-.892 1.754-2.677 1.754-5.889 0-2.677-.526-4.461-1.578-5.175-.702-.535-1.754-.892-3.332-1.07-1.578-.18-4.384-.18-8.592-.18h-17.01V18.47h-.175zM175.914 36.136V.803h34.384v4.104h-29.775v10.886h28.536v4.104h-28.536V32.03h29.775v4.106zM210.298.803h5.29l17.282 31.05h1.585l16.93-31.05h5.29l-19.397 35.333h-7.231z"/>
        <mask id="b" fill="#fff">
            <use xlink:href="#a"/>
        </mask>
        <path fill="#1A2325" d="M258.274 36.136h4.798V.803h-4.798zM267.87.803h18.733l18.379 26.41h1.06l-.176-26.41h10.78v35.333H298.09l-18.382-26.41h-1.235l.177 26.41h-10.78zM321.444.803h39.002v8.209h-28.495v5.175h27.072v7.673h-27.072v5.71h28.674v8.566h-39.181zM387.1 0c7.556 0 12.651.177 15.465.531 4.042.532 6.502 2.48 7.556 5.846.703 2.303.879 6.2.879 11.691 0 5.491-.353 9.389-.879 11.69-.878 3.367-3.34 5.314-7.556 5.847-2.814.352-7.909.531-15.465.531-7.559 0-12.831-.179-15.641-.531-4.042-.533-6.504-2.48-7.557-5.847-.705-2.301-.879-6.199-.879-11.867 0-5.314.352-9.211.879-11.514.879-3.366 3.337-5.314 7.557-5.846 2.987-.354 8.26-.531 15.64-.531m.176 9.034c-5.625 0-8.962.177-10.193.354-1.23.355-2.108 1.063-2.636 2.303-.351 1.24-.527 3.543-.527 7.086 0 2.125.176 3.72.35 4.605.351 1.772 1.757 2.835 3.866 3.012 1.584.177 4.571.354 9.14.354 4.218 0 7.204 0 8.611-.177 1.406-.177 2.46-.532 3.164-1.063.701-.531 1.052-1.24 1.23-2.126.176-.885.35-2.48.35-4.605 0-2.48 0-4.429-.174-5.492-.176-1.24-.528-2.125-.879-2.657-.527-.708-1.406-1.24-2.812-1.417-1.581 0-4.57-.177-9.49-.177M90.39 47.321v3.27h-.834v-7.227h2.666c.166 0 .5.173.666.344.167.172.333.346.5.69.166.342.166.686.166 1.03 0 .346 0 .69-.166 1.033a2.345 2.345 0 0 1-.5.688c-.166.172-.333.172-.666.346h-1.833v-.174zm0-.86h.5c.665 0 1.165-.172 1.498-.342.167-.174.334-.518.334-.86 0-.519-.167-.861-.334-1.035-.333-.17-.666-.344-1.499-.344h-.5v2.581zM103.15 50.59v-7.226h2.741c.172 0 .343.17.514.344.172.172.343.342.514.686.172.346.172.517.172.86 0 .517-.172 1.035-.514 1.377-.343.345-.857.518-1.371.518l2.741 3.442h-1.028l-2.57-3.442h-.171v3.442h-1.028zm.857-6.366v2.407h.685c.685 0 1.2-.17 1.37-.342.172-.174.343-.518.343-.86 0-.518-.171-.86-.342-1.035-.172-.17-.686-.344-1.371-.344h-.685v.174zM120.915 50.321c.348 0 .695 0 1.217-.178.348-.177.695-.357 1.043-.714.347-.355.521-.712.695-1.07.174-.357.174-.714.174-1.25 0-.357 0-.892-.174-1.249-.174-.355-.348-.712-.695-1.07-.348-.357-.695-.534-1.043-.714-.348-.179-.695-.179-1.217-.179-.348 0-.87 0-1.217.179-.347.18-.695.357-1.043.713-.347.36-.521.716-.695 1.071-.174.357-.174.714-.174 1.25 0 .356 0 .892.174 1.248.174.36.348.716.695 1.071.348.357.696.537 1.043.714.348 0 .696.178 1.217.178m3.824-3.031c0 .535-.174 1.068-.347 1.604-.174.535-.522.892-.87 1.249-.347.359-.869.716-1.216.892-.522.179-1.043.359-1.565.359-.521 0-1.043-.18-1.564-.359-.522-.176-.87-.533-1.217-.892-.348-.357-.695-.714-.87-1.25-.173-.535-.347-.891-.347-1.427 0-.533.174-1.069.348-1.606.174-.535.521-.892.869-1.247.348-.357.87-.716 1.217-.892.521-.18 1.043-.357 1.564-.357.522 0 1.043.176 1.565.357.521.176.869.535 1.216.892.348.355.696.712.87 1.247.173.357.347.714.347 1.43M137.886 46.725h2.846v.17c0 1.175-.335 2.015-1.005 2.687-.67.674-1.506 1.009-2.51 1.009-.335 0-.67 0-1.004-.168-.335 0-.502-.167-.837-.336a5.105 5.105 0 0 1-1.339-1.345c-.335-.504-.502-1.176-.502-1.847 0-.674.167-1.178.335-1.514.167-.505.502-.84.837-1.177.334-.336.669-.504 1.171-.67.502-.17.837-.17 1.339-.17.67 0 1.339.17 1.84.336.503.168.838.674 1.172 1.176l-.669.505c-.335-.505-.502-.673-1.004-1.007-.335-.17-.837-.338-1.34-.338-.836 0-1.505.338-2.007.84-.502.505-.837 1.345-.837 2.185 0 .84.335 1.515.837 2.017.502.504 1.171.84 2.008.84.67 0 1.339-.167 1.84-.672.503-.504.67-1.008.838-1.68h-2.009v-.84zM151.126 50.59v-7.226h2.844c.177 0 .355.17.533.344.177.172.355.342.533.686.177.346.177.517.177.86 0 .517-.177 1.035-.533 1.377-.355.345-.888.518-1.421.518h-.178l2.843 3.442h-1.066l-2.665-3.442h-.178v3.442h-.889zm.711-6.366v2.407h.711c.71 0 1.244-.17 1.422-.342a1.3 1.3 0 0 0 .355-.86c0-.518-.178-.86-.355-1.035-.178-.17-.711-.344-1.422-.344h-.71v.174zM166.32 44.57l-1.18 2.737h2.19l-1.01-2.737zm0-2.01l3.198 8.03h-.842l-.842-2.371h-3.03l-.842 2.372h-.841l3.198-8.03zM182.311 50.59l-2.26-5.353-1.042 4.999h-.696l1.39-7.675 2.608 6.245 2.608-6.245 1.39 7.675h-.869l-.869-4.999zM198.126 44.57l-1.244 2.737h2.31l-1.066-2.737zm0-2.01l3.376 8.03h-.889l-.888-2.371h-2.843l-.888 2.372h-.889l3.02-8.03zM212.874 46.13c.533.18.889.537 1.066.892.178.357.356.714.356 1.249 0 .716-.178 1.25-.713 1.608-.353.357-1.064.712-1.777.712-.531 0-1.064-.179-1.42-.535-.357-.357-.71-.712-.888-1.25l.889-.355c.177.536.355.712.53 1.07.18.178.536.358.89.358.534 0 .888-.18 1.067-.359.356-.176.356-.533.356-1.069 0-.357-.178-.715-.356-.892-.18-.18-.533-.537-.888-.716l-.889-.356a1.825 1.825 0 0 1-1.068-.893c-.176-.357-.353-.712-.353-1.249 0-.535.177-.892.533-1.247.355-.357.888-.537 1.597-.537.535 0 .889.18 1.246.357.355.18.531.535.71.892l-.71.535c-.178-.355-.357-.535-.533-.712-.178-.18-.356-.18-.713-.18-.353 0-.531.18-.888.357-.176.18-.354.535-.354.715 0 .177 0 .534.178.712.176.18.355.357.71.538l1.422.355zM241.506 49.903h.496c.823 0 1.48 0 1.809-.172.33 0 .66-.173.823-.345.33-.172.494-.516.66-1.032.163-.344.163-.86.163-1.377 0-.516 0-1.032-.163-1.376-.166-.345-.33-.689-.66-1.033a1.223 1.223 0 0 0-.823-.344c-.33 0-.986-.172-1.81-.172h-.495v5.85zm-.823.688v-7.227h1.319c.986 0 1.646 0 2.14.172.329.172.823.344.986.516.329.344.66.688.823 1.204.166.517.33 1.033.33 1.721 0 .689-.164 1.205-.33 1.721-.163.516-.494.86-.986 1.205l-.99.516c-.327.172-.987.172-1.81.172h-1.482zM255.875 50.59v-7.226h3.999v.86h-3.09v2.065h3.09v.86h-3.09v2.754h3.09v.688zM286.294 47.321v3.27h-.833v-7.227h2.667c.165 0 .498.173.666.344.167.172.332.346.5.69.165.342.165.686.165 1.03 0 .346 0 .69-.165 1.033a2.376 2.376 0 0 1-.5.688c-.168.172-.333.172-.666.346h-1.834v-.174zm0-.86h.5c.665 0 1.167-.172 1.499-.342.168-.174.333-.518.333-.86 0-.519-.165-.861-.333-1.035-.332-.17-.665-.344-1.499-.344h-.5v2.581zM299.054 50.59v-7.226H301.9c.176 0 .356.17.532.344.177.172.357.342.533.686.18.346.18.517.18.86 0 .517-.18 1.035-.536 1.377-.353.345-.888.518-1.421.518h-.176l2.841 3.442h-1.064l-2.666-3.442h-.18v3.442h-.888zm.711-6.366v2.407h.713c.709 0 1.242-.17 1.421-.342a1.31 1.31 0 0 0 .356-.86c0-.518-.18-.86-.356-1.035-.18-.17-.712-.344-1.421-.344h-.713v.174zM312.648 50.59v-7.226h3.998v.86h-3.09v2.065h3.09v.86h-3.09v2.754h3.09v.688zM328.64 51.394l-3.198-8.03h1.066l2.132 6.022 2.132-6.022h1.067zM340.634 50.59v-7.226h3.998v.86h-2.955v2.065h2.955v.86h-2.955v2.754h2.955v.688zM354.228 50.236V42.56l5.508 5.89v-5.71h.889v7.85l-5.509-5.889v5.534zM376.617 44.758c-.346-.366-.69-.732-1.038-.915-.345-.185-.864-.367-1.381-.367-.347 0-.693 0-1.212.182-.346.185-.691.368-1.037.734-.344.366-.519.733-.692 1.097-.173.368-.173.735-.173 1.284 0 .366 0 .733.173.916 0 .366.173.547.348.915l1.035 1.1c.346.182.865.364 1.383.364.52 0 .865-.182 1.21-.365.346-.183.694-.55 1.038-.915v1.28c-.344.368-.692.551-1.209.551-.347.183-.864.183-1.211.183-.346 0-.692 0-1.038-.183-.344-.183-.691-.366-1.037-.551-.519-.365-.865-.916-1.21-1.464-.346-.549-.346-1.283-.346-1.831 0-.55.173-1.099.346-1.648.174-.552.518-.916.864-1.282a5.269 5.269 0 0 1 1.21-.916c.519-.185.865-.366 1.558-.366.344 0 .864 0 1.209.18.345.186.864.369 1.21.552v1.465zM372.987 53v-.55c.347 0 .518.184.69.184h.521c.171 0 .344 0 .517-.183.173 0 .173-.184.173-.367 0-.185 0-.185-.173-.366-.173 0-.346-.183-.517-.183h-.347v-1.1h.347v.549h.171c.346 0 .693 0 .865.185.173.183.345.366.345.73 0 .368-.172.552-.345.735-.172.181-.519.181-.865.181h-.518c-.346.185-.692.185-.865.185zM388.432 44.912l-1.242 2.582h2.31l-1.068-2.582zm0-1.894l3.377 7.573h-.888l-.89-2.237h-2.841l-.889 2.237h-.889l3.02-7.573zm1.6-1.891c0 .344-.176.516-.356.688-.176.172-.355.342-.709.342h-.355l-.533-.17h-.356c-.18 0-.18 0-.357.17l-.176.174h-.535c0-.344.18-.516.355-.688.18-.172.356-.346.713-.346h.356l.533.174h.356c.175 0 .175 0 .353-.174 0 0 .18-.17.18-.342h.53v.172zM404.777 50.321c.348 0 .694 0 1.217-.178.346-.177.695-.357 1.043-.714.347-.355.521-.712.695-1.07.174-.357.174-.714.174-1.25 0-.357 0-.892-.174-1.249-.174-.355-.348-.712-.695-1.07-.348-.357-.697-.534-1.043-.714-.348-.179-.696-.179-1.217-.179-.348 0-.87 0-1.217.179-.348.18-.697.357-1.043.713-.347.36-.523.716-.695 1.071-.174.357-.174.714-.174 1.25 0 .356 0 .892.174 1.248.172.36.348.716.695 1.071.346.357.695.537 1.043.714.348 0 .695.178 1.217.178m3.824-3.031c0 .535-.174 1.068-.347 1.604-.176.535-.522.892-.87 1.249-.347.359-.869.716-1.216.892-.522.179-1.043.359-1.567.359-.52 0-1.04-.18-1.562-.359-.522-.176-.87-.533-1.217-.892-.348-.357-.697-.714-.87-1.25-.173-.535-.347-.891-.347-1.427 0-.533.174-1.069.348-1.606.172-.535.521-.892.869-1.247.348-.357.869-.716 1.217-.892.521-.18 1.043-.357 1.562-.357.524 0 1.045.176 1.567.357.521.176.869.535 1.216.892.348.355.694.712.87 1.247.347.357.347.714.347 1.43" mask="url(#b)"/>
        <path fill="#5F293D" d="M5.107 0h19.372c2.817 0 5.107 2.273 5.107 5.07v11.541c0 2.798-2.29 5.07-5.107 5.07H5.107C2.289 21.682 0 19.41 0 16.612V5.246C0 2.448 2.29 0 5.107 0" mask="url(#b)"/>
        <path fill="#B72221" d="M45.247 0h-8.134c-2.83 0-5.129 2.273-5.129 5.07v11.541c0 2.798 2.3 5.07 5.129 5.07h8.134c2.83 0 5.128-2.272 5.128-5.07V5.246C50.375 2.448 48.077 0 45.247 0" mask="url(#b)"/>
        <path fill="#008E9A" d="M58.683 0h10.571a5.11 5.11 0 0 1 5.11 5.102v21.114a5.11 5.11 0 0 1-5.11 5.102h-10.57a5.11 5.11 0 0 1-5.11-5.102V5.102c0-2.639 2.29-5.102 5.11-5.102" mask="url(#b)"/>
        <path fill="#CEB57C" d="M5.05 24.894h11.49c2.786 0 5.05 2.288 5.05 5.104v15.489c0 2.816-2.264 5.104-5.05 5.104H5.05C2.262 50.59 0 48.303 0 45.487V29.998c0-2.816 2.263-5.104 5.05-5.104" mask="url(#b)"/>
        <path fill="#EA5580" d="M30.676 34.53h38.6c2.807 0 5.088 2.333 5.088 5.202v6.46c0 2.871-2.281 5.202-5.088 5.202h-38.6c-2.808 0-5.088-2.33-5.088-5.201v-6.461c0-2.87 2.28-5.202 5.088-5.202" mask="url(#b)"/>
    </g>
</svg>
