<svg xmlns="http://www.w3.org/2000/svg" xmlns:xlink="http://www.w3.org/1999/xlink" width="510" height="588" viewBox="0 0 510 588">
    <defs>
        <path id="a" d="M0 .728h12.816v12.807H0z"/>
        <path id="c" d="M.184.354h12.817V13.16H.184z"/>
    </defs>
    <g fill="none" fill-rule="evenodd">
        <path fill="#000" d="M212.551 522.441l-.294.216L255.843 582 316 471l-104 51.306.257.351.294-.216.161.327 101.554-50.098-58.515 107.97-42.906-58.415-.294.216.161.327z"/>
        <path fill="#000" d="M221.815 518.702l.26.258 154.64-154.64-61.079 107.894-93.982 46.161.161.327.26.258-.26-.258.162.327 94.185-46.26L380 360 220 520l1.977-.971z"/>
        <path fill="#000" d="M320.84 463.223l.146.335s21.15-9.216 42.301-18.486a8250.677 8250.677 0 0 0 29.083-12.797c3.966-1.757 7.271-3.233 9.586-4.282 1.158-.523 2.068-.942 2.692-1.236.31-.148.55-.264.717-.349.084-.043.148-.078.201-.109l.079-.05.059-.054.051-.068a.368.368 0 0 0-.227-.545l-.095-.012v.35l.24-.255a.35.35 0 0 0-.24-.095v.35l.24-.255-.188.199.264-.09c-.007-.006 0-.03-.075-.11l-.19.2.265-.09-.03.01.03-.008v-.002l-.03.01.03-.008a2.976 2.976 0 0 1-.047-.418c-.05-.716-.075-2.175-.075-4.22 0-11.036.68-39.28 1.36-64.757a16996.353 16996.353 0 0 1 1.244-44.247l.117-3.948.045-1.487-88.407 157.295 1-.436-.147-.335.32.18L408.3 308.354l-.319-.18-.366-.01c0 .003-2.72 90.863-2.72 112.973 0 1.53.013 2.732.041 3.557.014.413.032.731.055.957.012.115.024.204.043.288l.05.14.085.115a.383.383 0 0 0 .263.106v-.35l-.138.321c.08.032.114.027.138.029v-.35l-.138.321.142-.332-.285.222.143.11.142-.332-.285.222.287-.223h-.364a.37.37 0 0 0 .077.223l.287-.223h-.364.36l-.31-.183a.356.356 0 0 0-.05.183h.36l-.31-.183.285.168-.216-.251-.07.083.286.168-.216-.251.121.14-.105-.153-.016.013.121.14-.105-.153a4.77 4.77 0 0 1-.34.178c-1.565.773-7.627 3.485-15.814 7.104-12.283 5.431-29.375 12.918-43.394 19.046-7.01 3.064-13.252 5.79-17.742 7.749l-5.297 2.31-1.93.841.146.335.32.18-.32-.18zM35.128 233.893l.265-.251-28.549-30.04 19.114-41.374 8.807 71.71.363-.045.265-.251-.265.251.363-.044-9.12-74.26-20.399 44.156 29.654 31.203-.135-1.1zM124.457 25.28l.11.348 55.122-17.393-.128 5.346-3.006 94.108-51.788-82.604-.31.194.11.349-.11-.349-.31.195 53.063 84.637 3.083-96.51.152-6.371-56.55 17.843.252.4z"/>
        <path fill="#000" d="M202.689 64.76l.334-.149-23.411-52.63-4.51 141.2 27.977-88.443-.056-.127-.334.149-.35-.11-26.337 83.259 4.24-132.712 22.112 49.711.335-.148-.35-.11zM51.408 150.545l-.284.231 61.252 75.175L82.864 57.445l-31.868 93.174.128.157.284-.231.346.118 30.881-90.286 28.537 162.937-59.48-73-.284.231.346.118z"/>
        <path fill="#000" d="M58.268 130.489h.366l-.152-67.377 23.72-4.517-24.28 71.777.346.117h.366-.366l.347.117 24.682-72.963-25.548 4.865.158 70.19.708-2.092zM26.164 160.908l.14.338 24.615-10.105-15.709 80.422-8.683-70.7-.363.045.14.338-.14-.338-.363.045 9.244 75.271 16.852-86.275-26.13 10.727.034.277z"/>
        <path fill="#000" d="M35.128 233.893l-.114.348 46.949 15.266L51.33 149.035 34.706 234.14l.308.101.114-.348.359.07 15.999-81.908 29.368 96.323-45.613-14.833-.113.348.359.07z"/>
        <path fill="#000" d="M81.408 248.942l.35-.106-29.456-96.616 58.955 72.358-30.077 24.08.228.284.35-.106-.35.106.229.285 30.654-24.54-61.776-75.817 30.7 100.695.422-.338z"/>
        <path fill="#000" d="M85.013 71.837l-.36.062 32.541 187.91 26.295-205.304-58.892 17.072.056.322.36-.062.102.35 57.506-16.67-25.535 199.376L85.374 71.774l-.36.063.101.35z"/>
        <path fill="#000" d="M143.055 55.011l-.31.195 33.728 53.73-58.608 145.632 25.552-199.51-.362-.047-.31.195.31-.195-.363-.046-26.277 205.167 60.876-151.268-34.47-54.912-.13 1.013z"/>
        <path fill="#000" d="M176.882 108.9l-.34-.135-59.874 150.058 52.52 22.897 8.16-174.977-.805 2.022.339.135-.366-.017-8.01 171.742-50.895-22.189 59.61-149.4-.339-.136-.366-.017z"/>
        <path fill="#000" d="M175.552 150.545l-.366-.018-6.717 130.886 80.596 33.102-73.801-165.512-.078 1.524.366.018-.335.15 72.437 162.45-78.428-32.212 6.691-130.37-.365-.018-.335.15z"/>
        <path fill="#000" d="M175.552 283.926l-.357.08 8.49 37.535 66.13-7.508-74.776-30.712.156.686.357-.08-.14.337 71.492 29.363-62.65 7.114-8.345-36.895-.357.08-.14.338z"/>
        <path fill="#000" d="M175.552 150.545l-.335.15 74.054 166.078-46.487-253.525-27.623 87.319.056.127.335-.149.349.11 26.693-84.383 44.854 244.615-71.562-160.491-.334.149.349.11z"/>
        <path fill="#000" d="M202.875 65.65l.13.342 91.337-34.522-.129-.342-.324.169.778 1.503c1.734 3.356 6.07 11.788 9.972 19.702 1.95 3.956 3.793 7.783 5.145 10.778.676 1.497 1.23 2.787 1.612 3.775.191.495.339.914.437 1.242.099.324.144.57.141.655v.022l.155.023-.131-.08-.025.057.156.023-.131-.08.234.142-.086-.26a.282.282 0 0 0-.148.117l.234.143-.086-.26.062.184-.04-.19-.022.007.062.183-.04-.19c0 .003-.145.016-.345.02-.204.007-.485.01-.834.01-6.118 0-33.156-.885-58.647-1.77-12.746-.441-25.11-.884-34.287-1.216-4.588-.165-8.38-.304-11.024-.4l-4.142-.152-.014.365.13.342-.13-.342-.014.366c.005 0 95.832 3.537 108.128 3.538.377 0 .677-.004.897-.01.112-.004.202-.009.276-.014.08-.01.122-.008.215-.037a.465.465 0 0 0 .284-.273.711.711 0 0 0 .045-.268c-.003-.27-.085-.587-.22-1.023-.513-1.609-1.882-4.694-3.659-8.456-5.327-11.274-14.288-28.511-14.29-28.513l-.15-.289-93.336 35.278 1.81.067.014-.366z"/>
        <path fill="#000" d="M202.875 65.65l-.36.067 37.006 199.58 73.262-196.5-110.35-3.527.082.447.36-.067-.012.366 108.878 3.48-71.982 193.069-36.524-196.981-.36.066-.012.366z"/>
        <path fill="#000" d="M305.66 86.856l-.155.33 108.963 50.754-174.066 124.993 65.6-175.95-.343-.127-.154.33.154-.33-.343-.127-66.439 178.2L415.91 137.804 305.454 86.357l-.138.372z"/>
        <path fill="#000" d="M415.189 137.872l-.202.305 87.462 57.776-94.056 111.171 7.162-169.236-.366-.016-.202.305.202-.305-.366-.015-7.252 171.37 95.968-113.43-88.688-58.586-.028.646z"/>
        <path fill="#000" d="M415.189 137.872l-.214-.296-176.18 126.51 169.533 44.559 7.258-171.508-.61.439.213.296-.366-.015-7.187 169.85-167.152-43.933L415.403 138.17l-.214-.297-.366-.015z"/>
        <path fill="#000" d="M239.64 263.93l-.093.353L407.43 308.41l-29.365 52.247-138.215-97.025-.211.3-.093.352.093-.353-.21.3 138.878 97.489 30.225-53.777-170.77-44.883 1.666 1.17z"/>
        <path fill="#000" d="M239.64 263.93l-.36.063 8.755 50.107 132.632 48.382-141.54-99.358.152.87.36-.064-.21.3 136.28 95.664-127.025-46.336-8.683-49.69-.361.062-.21.3z"/>
        <path fill="#000" d="M202.875 318.994l.042.363 45.237-5.136 60.548 113.362-105.564-108.844-.263.255.042.363-.042-.363-.263.254 109.186 112.578-63.233-118.388-46.47 5.277.517.533z"/>
        <path fill="#000" d="M202.875 318.994l-.263.254L309.735 429.7l-52.228 51.916-54.285-162.737-.347.116-.263.254.263-.254-.347.115 54.658 163.856 53.578-53.256L202.02 317.587l.507 1.522z"/>
        <path fill="#000" d="M248.36 313.83l-.323.171 62.123 116.312 68.689-69.273-131.263-47.882.45.843.324-.171-.126.343 129.292 47.163-67.187 67.758-61.657-115.436-.322.172-.126.343zM407.982 308.176l.28.236 94.299-111.459-3.091 50.14-91.69 60.778.202.305.28.236-.28-.236.202.304 91.993-60.978 3.25-52.706-97.38 115.1 2.137-1.416z"/>
        <path fill="#000" d="M407.982 308.176l-.366-.008-2.6 120.065 44.873-128.28-42.266 7.918-.007.297.366.008.068.359 40.731-7.63-42.933 122.734 2.5-115.455-.366-.008.068.359z"/>
        <path fill="#000" d="M407.982 308.176l.202.304 91.841-60.878-.202-.305-.268-.249-2.13 2.283a8188.435 8188.435 0 0 1-27.43 29.238c-5.397 5.72-10.524 11.123-14.352 15.094a350.606 350.606 0 0 1-4.635 4.743 51.546 51.546 0 0 1-1.339 1.298 7.587 7.587 0 0 1-.37.326l-.086.064-.004.003.136.24v-.27c-.127.008-.128.032-.136.03l.136.24v-.27.353l.252-.247a.353.353 0 0 0-.252-.106v.353l.252-.247-.003-.003c-.068-.065-.119-.082-.157-.096-.11-.034-.163-.029-.241-.031-.207 0-.513.032-.95.09-3.242.43-13.31 2.35-22.589 4.163-9.276 1.814-17.746 3.521-17.747 3.521l.072.359.202.304-.202-.304.073.358 1.66-.334c3.708-.743 13.013-2.6 21.682-4.274a957.373 957.373 0 0 1 11.743-2.206c1.617-.29 3-.528 4.049-.693 1.04-.164 1.775-.256 2.007-.253h.033l.008.001.02-.165-.049.159.03.006.02-.165-.05.159.094-.308-.225.226c.068.065.11.072.131.082l.094-.308-.225.226.258-.258-.26.255a.379.379 0 0 0 .27.114c.114-.005.153-.032.192-.047.07-.036.115-.07.174-.115.222-.172.584-.507 1.104-1.012 3.875-3.773 16.185-16.783 27.538-28.863 11.352-12.077 21.737-23.214 21.738-23.215l2.113-2.265-95.98 63.622 1.83-.37-.072-.357z"/>
        <path fill="#39ACB5" d="M303.841 33.814a6.406 6.406 0 0 1-6.41 6.402 6.404 6.404 0 1 1 0-12.806c3.54 0 6.41 2.868 6.41 6.404M186.475 16.235a6.407 6.407 0 0 1-6.41 6.402 6.404 6.404 0 1 1 0-12.806c3.54 0 6.41 2.867 6.41 6.404M32.572 160.91a6.407 6.407 0 0 1-6.41 6.401 6.404 6.404 0 1 1 0-12.806c3.54 0 6.41 2.867 6.41 6.405"/>
        <g transform="translate(0 196.673)">
            <mask id="b" fill="#fff">
                <use xlink:href="#a"/>
            </mask>
            <path fill="#39ACB5" d="M12.816 7.133a6.407 6.407 0 0 1-6.41 6.402 6.404 6.404 0 1 1 0-12.807c3.54 0 6.41 2.868 6.41 6.405" mask="url(#b)"/>
        </g>
        <path fill="#39ACB5" d="M41.536 232.189a6.407 6.407 0 0 1-6.41 6.402 6.404 6.404 0 1 1 0-12.807c3.54 0 6.41 2.868 6.41 6.405M117.14 223.025a6.407 6.407 0 0 1-6.41 6.402 6.404 6.404 0 1 1 0-12.806c3.54 0 6.41 2.867 6.41 6.404M88 248.944a6.407 6.407 0 0 1-6.41 6.401 6.404 6.404 0 1 1 0-12.806c3.54 0 6.41 2.868 6.41 6.405M209.283 65.652a6.407 6.407 0 0 1-6.41 6.401 6.404 6.404 0 1 1 0-12.806c3.54 0 6.41 2.867 6.41 6.405M318.67 69.148a6.407 6.407 0 0 1-6.41 6.402 6.404 6.404 0 1 1 0-12.807c3.54 0 6.41 2.868 6.41 6.405M312.736 86.857a6.407 6.407 0 0 1-6.41 6.402 6.404 6.404 0 1 1 0-12.807c3.54 0 6.41 2.868 6.41 6.405M181.96 150.546a6.407 6.407 0 0 1-6.41 6.402 6.404 6.404 0 1 1 0-12.806c3.54 0 6.41 2.867 6.41 6.404M421.597 137.874a6.407 6.407 0 0 1-6.41 6.401 6.404 6.404 0 1 1 0-12.806c3.54 0 6.41 2.868 6.41 6.405M509.402 195.876a6.407 6.407 0 0 1-6.41 6.402 6.404 6.404 0 1 1 0-12.807c3.54 0 6.41 2.868 6.41 6.405M506.231 247.299a6.407 6.407 0 0 1-6.41 6.401 6.404 6.404 0 1 1 0-12.806c3.54 0 6.41 2.867 6.41 6.405M175.255 281.174a6.407 6.407 0 0 1-6.41 6.402 6.404 6.404 0 1 1 0-12.806c3.54 0 6.41 2.867 6.41 6.404"/>
        <path fill="#39ACB5" d="M183.29 283.928a6.407 6.407 0 0 1-6.41 6.402 6.404 6.404 0 1 1 0-12.807c3.54 0 6.41 2.868 6.41 6.405M189.698 321.142a6.407 6.407 0 0 1-6.41 6.402 6.404 6.404 0 1 1 0-12.806c3.54 0 6.41 2.867 6.41 6.404M124.59 257.528a6.407 6.407 0 0 1-6.41 6.402 6.404 6.404 0 1 1 0-12.806c3.54 0 6.41 2.867 6.41 6.404M455.744 300.43a6.407 6.407 0 0 1-6.41 6.402 6.404 6.404 0 1 1 0-12.806c3.54 0 6.41 2.867 6.41 6.404M414.39 308.177a6.407 6.407 0 0 1-6.41 6.402 6.404 6.404 0 1 1 0-12.807c3.54 0 6.41 2.868 6.41 6.405M262.97 482.292a6.407 6.407 0 0 1-6.41 6.401 6.404 6.404 0 1 1 0-12.806c3.54 0 6.41 2.868 6.41 6.405M327.248 463.225a6.407 6.407 0 0 1-6.41 6.401 6.404 6.404 0 1 1 0-12.806c3.54 0 6.41 2.867 6.41 6.405"/>
        <path fill="#39ACB5" d="M322.14 471.754a6.407 6.407 0 0 1-6.41 6.402 6.404 6.404 0 1 1 0-12.807c3.54 0 6.41 2.868 6.41 6.405M411.84 425.937a6.407 6.407 0 0 1-6.409 6.401 6.404 6.404 0 1 1 0-12.806c3.54 0 6.41 2.867 6.41 6.405M219.158 521.836a6.407 6.407 0 0 1-6.41 6.402 6.404 6.404 0 1 1 0-12.807c3.54 0 6.41 2.868 6.41 6.405"/>
        <g transform="translate(250.976 574.664)">
            <mask id="d" fill="#fff">
                <use xlink:href="#c"/>
            </mask>
            <path fill="#39ACB5" d="M13.001 6.759a6.407 6.407 0 0 1-6.41 6.401 6.404 6.404 0 1 1 0-12.806c3.54 0 6.41 2.867 6.41 6.405" mask="url(#d)"/>
        </g>
        <path fill="#39ACB5" d="M209.283 318.995a6.407 6.407 0 0 1-6.41 6.402 6.404 6.404 0 1 1 0-12.806c3.54 0 6.41 2.867 6.41 6.404M316.658 429.706a6.407 6.407 0 0 1-6.41 6.401 6.404 6.404 0 1 1 0-12.806c3.54 0 6.41 2.868 6.41 6.405M384.595 361.19a6.407 6.407 0 0 1-6.41 6.401 6.404 6.404 0 1 1 0-12.806c3.54 0 6.41 2.867 6.41 6.404M246.048 263.018a6.407 6.407 0 0 1-6.41 6.402 6.404 6.404 0 1 1 0-12.807c3.54 0 6.41 2.868 6.41 6.405M256.562 312.56a6.407 6.407 0 0 1-6.41 6.402 6.404 6.404 0 1 1 0-12.806c3.54 0 6.41 2.867 6.41 6.404M230.5 518.063a6.407 6.407 0 0 1-6.41 6.401 6.404 6.404 0 1 1 0-12.806c3.54 0 6.41 2.867 6.41 6.405M149.463 55.013a6.407 6.407 0 0 1-6.41 6.402 6.404 6.404 0 1 1 0-12.807c3.54 0 6.41 2.868 6.41 6.405M183.29 108.902a6.407 6.407 0 0 1-6.41 6.401 6.404 6.404 0 1 1 0-12.806c3.54 0 6.41 2.867 6.41 6.405M91.422 71.838a6.407 6.407 0 0 1-6.41 6.402 6.404 6.404 0 1 1 0-12.807c3.54 0 6.41 2.868 6.41 6.405"/>
        <path fill="#39ACB5" d="M88 59.248a6.407 6.407 0 0 1-6.41 6.402 6.404 6.404 0 1 1 0-12.806c3.54 0 6.41 2.867 6.41 6.404M65.652 127.538a6.407 6.407 0 0 1-6.41 6.402 6.404 6.404 0 1 1 0-12.807c3.54 0 6.41 2.868 6.41 6.405M130.865 25.28a6.407 6.407 0 0 1-6.41 6.402 6.404 6.404 0 1 1 0-12.806c3.54 0 6.41 2.867 6.41 6.405M185.986 6.88a6.407 6.407 0 0 1-6.41 6.402 6.404 6.404 0 1 1 0-12.807c3.54 0 6.41 2.868 6.41 6.405M64.524 62.745a6.407 6.407 0 0 1-6.41 6.401 6.404 6.404 0 1 1 0-12.806c3.54 0 6.41 2.867 6.41 6.405"/>
    </g>
</svg>
