<svg xmlns="http://www.w3.org/2000/svg" xmlns:xlink="http://www.w3.org/1999/xlink" width="79" height="53" viewBox="0 0 79 53">
    <defs>
        <path id="a" d="M0 0h79v53H0z"/>
    </defs>
    <g fill="none" fill-rule="evenodd">
        <mask id="b" fill="#fff">
            <use xlink:href="#a"/>
        </mask>
        <path fill="#39ACB5" d="M20.206 18.925c1.88-7.34 6.866-10.256 12.604-11.95.564-.188.47-.752.47-.752L32.433.389s-.094-.47-.845-.377C11.458 2.177-2.087 17.513.265 36.142c2.445 12.984 12.604 17.97 21.822 16.654 9.312-1.507 15.708-10.162 14.204-19.476-1.224-8.28-8.09-14.113-16.085-14.395M78.805 33.32c-1.223-8.186-8.182-14.02-16.084-14.395 1.975-7.34 6.772-10.256 12.605-11.95.563-.188.47-.752.47-.752l-.94-5.834s-.096-.47-.848-.377C53.879 2.272 40.24 17.607 42.78 36.235c2.351 12.891 12.416 17.877 21.729 16.56 9.31-1.506 15.707-10.16 14.296-19.475" mask="url(#b)"/>
    </g>
</svg>
